<svg width="200" height="200" viewBox="0 0 200 200" fill="none" xmlns="http://www.w3.org/2000/svg">
<rect width="200" height="200" fill="#FC8F8F"/>
<path d="M115.875 114.969V122H84.75V116L99.4688 100.219C100.948 98.5729 102.115 97.125 102.969 95.875C103.823 94.6042 104.438 93.4688 104.812 92.4688C105.208 91.4479 105.406 90.4792 105.406 89.5625C105.406 88.1875 105.177 87.0104 104.719 86.0312C104.26 85.0312 103.583 84.2604 102.688 83.7188C101.812 83.1771 100.729 82.9062 99.4375 82.9062C98.0625 82.9062 96.875 83.2396 95.875 83.9062C94.8958 84.5729 94.1458 85.5 93.625 86.6875C93.125 87.875 92.875 89.2188 92.875 90.7188H83.8438C83.8438 88.0104 84.4896 85.5312 85.7812 83.2812C87.0729 81.0104 88.8958 79.2083 91.25 77.875C93.6042 76.5208 96.3958 75.8438 99.625 75.8438C102.812 75.8438 105.5 76.3646 107.688 77.4062C109.896 78.4271 111.562 79.9062 112.688 81.8438C113.833 83.7604 114.406 86.0521 114.406 88.7188C114.406 90.2188 114.167 91.6875 113.688 93.125C113.208 94.5417 112.521 95.9583 111.625 97.375C110.75 98.7708 109.688 100.188 108.438 101.625C107.188 103.062 105.802 104.552 104.281 106.094L96.375 114.969H115.875Z" fill="white"/>
</svg>
