<svg width="100" height="100" viewBox="0 0 100 100" fill="none" xmlns="http://www.w3.org/2000/svg">
<rect width="100" height="100" fill="#FC8F8F"/>
<path d="M46.1855 52.3457L42.1426 51.3789L43.6016 38.4062H57.9805V42.502H47.7676L47.1348 48.1797C47.4746 47.9805 47.9902 47.7695 48.6816 47.5469C49.373 47.3125 50.1465 47.1953 51.002 47.1953C52.2441 47.1953 53.3457 47.3887 54.3066 47.7754C55.2676 48.1621 56.082 48.7246 56.75 49.4629C57.4297 50.2012 57.9453 51.1035 58.2969 52.1699C58.6484 53.2363 58.8242 54.4434 58.8242 55.791C58.8242 56.9277 58.6484 58.0117 58.2969 59.043C57.9453 60.0625 57.4121 60.9766 56.6973 61.7852C55.9824 62.582 55.0859 63.209 54.0078 63.666C52.9297 64.123 51.6523 64.3516 50.1758 64.3516C49.0742 64.3516 48.0078 64.1875 46.9766 63.8594C45.957 63.5312 45.0371 63.0449 44.2168 62.4004C43.4082 61.7559 42.7578 60.9766 42.2656 60.0625C41.7852 59.1367 41.5332 58.082 41.5098 56.8984H46.5371C46.6074 57.625 46.7949 58.252 47.0996 58.7793C47.416 59.2949 47.832 59.6934 48.3477 59.9746C48.8633 60.2559 49.4668 60.3965 50.1582 60.3965C50.8027 60.3965 51.3535 60.2734 51.8105 60.0273C52.2676 59.7812 52.6367 59.4414 52.918 59.0078C53.1992 58.5625 53.4043 58.0469 53.5332 57.4609C53.6738 56.8633 53.7441 56.2188 53.7441 55.5273C53.7441 54.8359 53.6621 54.209 53.498 53.6465C53.334 53.084 53.082 52.5977 52.7422 52.1875C52.4023 51.7773 51.9688 51.4609 51.4414 51.2383C50.9258 51.0156 50.3223 50.9043 49.6309 50.9043C48.6934 50.9043 47.9668 51.0508 47.4512 51.3438C46.9473 51.6367 46.5254 51.9707 46.1855 52.3457Z" fill="white"/>
</svg>
