<svg width="200" height="200" viewBox="0 0 200 200" fill="none" xmlns="http://www.w3.org/2000/svg">
<rect width="200" height="200" fill="#FC8F8F"/>
<rect width="200" height="200" fill="#FC8F8F"/>
<path d="M93.9688 95.3438H98.7812C100.323 95.3438 101.594 95.0833 102.594 94.5625C103.594 94.0208 104.333 93.2708 104.812 92.3125C105.312 91.3333 105.562 90.1979 105.562 88.9062C105.562 87.7396 105.333 86.7083 104.875 85.8125C104.438 84.8958 103.76 84.1875 102.844 83.6875C101.927 83.1667 100.771 82.9062 99.375 82.9062C98.2708 82.9062 97.25 83.125 96.3125 83.5625C95.375 84 94.625 84.6146 94.0625 85.4062C93.5 86.1979 93.2188 87.1562 93.2188 88.2812H84.1875C84.1875 85.7812 84.8542 83.6042 86.1875 81.75C87.5417 79.8958 89.3542 78.4479 91.625 77.4062C93.8958 76.3646 96.3958 75.8438 99.125 75.8438C102.208 75.8438 104.906 76.3438 107.219 77.3438C109.531 78.3229 111.333 79.7708 112.625 81.6875C113.917 83.6042 114.562 85.9792 114.562 88.8125C114.562 90.25 114.229 91.6458 113.562 93C112.896 94.3333 111.938 95.5417 110.688 96.625C109.458 97.6875 107.958 98.5417 106.188 99.1875C104.417 99.8125 102.427 100.125 100.219 100.125H93.9688V95.3438ZM93.9688 102.188V97.5312H100.219C102.698 97.5312 104.875 97.8125 106.75 98.375C108.625 98.9375 110.198 99.75 111.469 100.812C112.74 101.854 113.698 103.094 114.344 104.531C114.99 105.948 115.312 107.521 115.312 109.25C115.312 111.375 114.906 113.271 114.094 114.938C113.281 116.583 112.135 117.979 110.656 119.125C109.198 120.271 107.49 121.146 105.531 121.75C103.573 122.333 101.438 122.625 99.125 122.625C97.2083 122.625 95.3229 122.365 93.4688 121.844C91.6354 121.302 89.9688 120.5 88.4688 119.438C86.9896 118.354 85.8021 117 84.9062 115.375C84.0312 113.729 83.5938 111.781 83.5938 109.531H92.625C92.625 110.698 92.9167 111.74 93.5 112.656C94.0833 113.573 94.8854 114.292 95.9062 114.812C96.9479 115.333 98.1042 115.594 99.375 115.594C100.812 115.594 102.042 115.333 103.062 114.812C104.104 114.271 104.896 113.521 105.438 112.562C106 111.583 106.281 110.448 106.281 109.156C106.281 107.49 105.979 106.156 105.375 105.156C104.771 104.135 103.906 103.385 102.781 102.906C101.656 102.427 100.323 102.188 98.7812 102.188H93.9688Z" fill="white"/>
</svg>
